<svg xmlns="http://www.w3.org/2000/svg" width="91.885" height="102.78" viewBox="0 0 91.885 102.78">
  <g id="Group_14" data-name="Group 14" transform="translate(0 0)">
    <g id="Group_1" data-name="Group 1" transform="translate(14.493)">
      <path id="Path_29" data-name="Path 29" d="M346.641,269.264,323.367,278.9l6.29,2.605,23.273-9.639-5.4-13.027,5.4-13.026-11.14-4.615,2.605,6.29,2.245.93-4.317,10.421Z" transform="translate(-290.033 -227.393)" fill="#6ab453"/>
      <path id="Path_30" data-name="Path 30" d="M266.16,187.189l9.639,23.273,2.605-6.29L268.766,180.9l-13.027,5.4-13.026-5.4-4.615,11.14,6.29-2.605.93-2.245,10.421,4.317Z" transform="translate(-224.289 -180.898)" fill="#6ab453"/>
      <path id="Path_31" data-name="Path 31" d="M184.085,231.5l23.273-9.639-6.29-2.605L177.8,228.891l5.4,13.027-5.4,13.026,11.14,4.615-2.605-6.29-2.245-.93,4.317-10.421Z" transform="translate(-177.795 -210.469)" fill="#6ab453"/>
      <path id="Path_32" data-name="Path 32" d="M228.393,349.744l-9.639-23.273-2.605,6.29,9.639,23.273,13.027-5.4,13.026,5.4,4.615-11.14-6.29,2.605-.93,2.245-10.421-4.317Z" transform="translate(-207.365 -293.136)" fill="#6ab453"/>
      <path id="Path_33" data-name="Path 33" d="M336.5,260.56q.47-.019.944-.013a24.057,24.057,0,0,1-3.018,22.778,21.067,21.067,0,0,1-5.079-.543A22.6,22.6,0,0,0,336.5,260.56Z" transform="translate(-294.643 -242.307)" fill="#6ab453"/>
      <path id="Path_34" data-name="Path 34" d="M274.126,376.616a24.19,24.19,0,0,1-14.9,5.1l-2.06-4.975a22.455,22.455,0,0,0,9.782-1.43A25.539,25.539,0,0,0,274.126,376.616Z" transform="translate(-238.989 -330.791)" fill="#6ab453"/>
      <path id="Path_35" data-name="Path 35" d="M296.1,339.6q.019.471.013.944a24.058,24.058,0,0,1-22.778-3.018,21.085,21.085,0,0,1,.543-5.079A22.6,22.6,0,0,0,296.1,339.6Z" transform="translate(-251.458 -297.746)" fill="#6ab453"/>
      <path id="Path_36" data-name="Path 36" d="M235.189,277.229a24.188,24.188,0,0,1-5.1-14.9l4.975-2.06a22.455,22.455,0,0,0,1.43,9.782A25.542,25.542,0,0,0,235.189,277.229Z" transform="translate(-218.117 -242.092)" fill="#6ab453"/>
      <path id="Path_37" data-name="Path 37" d="M257.457,264.229q-.019-.471-.013-.944a24.057,24.057,0,0,1,22.778,3.018,21.08,21.08,0,0,1-.543,5.079A22.6,22.6,0,0,0,257.457,264.229Z" transform="translate(-239.204 -243.187)" fill="#6ab453"/>
      <path id="Path_38" data-name="Path 38" d="M373.512,302.134a24.187,24.187,0,0,1,5.1,14.9l-4.975,2.06a22.453,22.453,0,0,0-1.43-9.782A25.538,25.538,0,0,0,373.512,302.134Z" transform="translate(-327.687 -274.372)" fill="#6ab453"/>
      <path id="Path_39" data-name="Path 39" d="M261.125,299.207q-.471.019-.944.013a24.057,24.057,0,0,1,3.018-22.778,21.073,21.073,0,0,1,5.079.543A22.6,22.6,0,0,0,261.125,299.207Z" transform="translate(-240.084 -254.561)" fill="#6ab453"/>
      <path id="Path_40" data-name="Path 40" d="M299.031,238.293a24.186,24.186,0,0,1,14.9-5.1l2.06,4.975a22.456,22.456,0,0,0-9.782,1.43A25.536,25.536,0,0,0,299.031,238.293Z" transform="translate(-271.269 -221.22)" fill="#6ab453"/>
    </g>
    <g id="Group_3" data-name="Group 3" transform="translate(0 67.384)">
      <path id="Path_41" data-name="Path 41" d="M524.819,237.823c-.05-.471-.124-.669-.3-.669s-.273.174-.372.4l-7.286,15.563-7.584-15.588c-.124-.273-.223-.372-.372-.372s-.248.174-.273.446l-1.784,16.158c-.1.942-.174,1.908-.991,2.057a3.183,3.183,0,0,1-.743.074c-.124,0-.248.05-.248.124,0,.173.173.223.421.223.669,0,1.859-.074,2.082-.074.2,0,1.388.074,2.3.074.3,0,.446-.05.446-.223,0-.074-.1-.124-.2-.124a4.564,4.564,0,0,1-.942-.124.793.793,0,0,1-.644-.768c0-.421,0-.867.025-1.264l.991-11.5h.1c.273.669,3.048,6.617,3.271,7.063.124.248,2.255,4.535,2.9,5.75.471.892.595,1.14.768,1.14.223,0,.3-.223.818-1.313l6.072-12.887h.074l1.19,12.788c.05.446.025.867-.1.892s-.174.074-.174.174c0,.124.124.2.694.248.917.074,3.593.149,4.139.149.3,0,.52-.074.52-.223,0-.1-.074-.124-.2-.124a5.374,5.374,0,0,1-1.611-.223c-1.066-.347-1.239-1.735-1.338-2.627Z" transform="translate(-504.869 -237.154)" fill="#066069" fill-rule="evenodd"/>
      <path id="Path_42" data-name="Path 42" d="M633.058,249.649c0,2.379,0,4.337-.124,5.378-.1.719-.223,1.264-.719,1.363a3.829,3.829,0,0,1-.743.1c-.149,0-.2.074-.2.149,0,.149.124.2.4.2.743,0,2.3-.074,2.429-.074.719,0,2.379.149,6.121.149.966,0,1.165,0,1.338-.645.124-.52.322-2.206.322-2.4,0-.173,0-.372-.149-.372-.124,0-.174.1-.223.372-.174,1.016-.471,1.512-1.115,1.785a7.112,7.112,0,0,1-2.379.272c-2.429,0-2.8-.322-2.875-2.032-.025-.52,0-3.4,0-4.238v-2.181a.157.157,0,0,1,.174-.174c.421,0,2.875.05,3.544.124.967.1,1.19.52,1.289.867a2.533,2.533,0,0,1,.1.818c0,.124.05.223.174.223.173,0,.173-.273.173-.471,0-.173.049-1.09.1-1.586.074-.818.2-1.239.2-1.388s-.05-.2-.124-.2c-.1,0-.2.124-.372.322-.223.248-.57.3-1.165.347-.57.049-3.618.049-3.94.049-.124,0-.149-.074-.149-.248v-6.84c0-.174.049-.248.149-.248.273,0,2.974.025,3.4.074,1.338.149,1.586.446,1.76.843a2.665,2.665,0,0,1,.149.892c0,.2.049.322.2.322.1,0,.149-.149.174-.273.05-.3.1-1.388.124-1.636.074-.694.2-.991.2-1.165,0-.124-.025-.223-.1-.223-.124,0-.223.1-.347.124a6.6,6.6,0,0,1-1.066.124c-.57.025-5.5.025-5.675.025-.124,0-1.685-.074-2.8-.074-.273,0-.4.05-.4.2,0,.1.1.149.2.149a4.627,4.627,0,0,1,.843.074c.818.173,1.016.57,1.065,1.413.05.793.05,1.487.05,5.353Z" transform="translate(-605.848 -237.753)" fill="#066069" fill-rule="evenodd"/>
      <path id="Path_43" data-name="Path 43" d="M696.626,250.448c0,2.379,0,4.337-.124,5.378-.1.719-.223,1.264-.719,1.363a3.832,3.832,0,0,1-.744.1c-.149,0-.2.074-.2.149,0,.149.124.2.4.2.744,0,2.3-.074,2.33-.074.124,0,1.685.074,3.048.074.273,0,.4-.074.4-.2,0-.074-.05-.149-.2-.149a10.826,10.826,0,0,1-1.115-.1c-.743-.1-.892-.644-.966-1.363-.124-1.041-.124-3-.124-5.378v-.595c0-.124.05-.2.174-.2l3.048.05a.4.4,0,0,1,.322.149c.5.644,1.66,2.3,2.7,3.668,1.413,1.859,2.28,3.073,3.346,3.643a5.043,5.043,0,0,0,2.652.471h1.76c.446,0,.595-.05.595-.2,0-.074-.1-.149-.223-.149a5.941,5.941,0,0,1-.966-.074,5.125,5.125,0,0,1-3.024-1.784c-1.437-1.536-3.122-3.742-5.155-6.344,2.231-2.057,3-3.891,3-5.725a4.337,4.337,0,0,0-1.71-3.37,7.631,7.631,0,0,0-4.535-1.091c-.768,0-2.652.074-2.924.074-.124,0-1.685-.074-2.8-.074-.272,0-.4.05-.4.2,0,.1.1.149.2.149a4.624,4.624,0,0,1,.843.074c.818.173,1.016.57,1.066,1.413.049.793.049,1.487.049,5.353Zm1.983-10.31a.3.3,0,0,1,.2-.3,7.478,7.478,0,0,1,1.66-.149c2.652,0,4.287,1.859,4.287,4.956a4.524,4.524,0,0,1-1.512,3.817,3.208,3.208,0,0,1-1.859.471,6.828,6.828,0,0,1-2.6-.4.324.324,0,0,1-.174-.3Z" transform="translate(-656.779 -238.552)" fill="#066069" fill-rule="evenodd"/>
      <path id="Path_44" data-name="Path 44" d="M769.9,253.312l5.553-15.191c.3-.818.4-.967.545-.967s.248.124.545.892c.372.942,4.263,11.177,5.774,14.944.892,2.206,1.611,2.6,2.131,2.751a3.2,3.2,0,0,0,.991.149c.149,0,.248.025.248.149,0,.149-.223.2-.5.2-.372,0-2.181,0-3.891-.05-.471-.025-.743-.025-.743-.173,0-.1.074-.149.174-.174.149-.049.3-.273.149-.669l-2.3-6.1a.217.217,0,0,0-.223-.149h-5.328a.261.261,0,0,0-.248.2l-1.487,4.387a6.839,6.839,0,0,0-.244.834,6.662,6.662,0,0,1-1.008-.885Zm3.4-5.278h4.733c.124,0,.124-.074.1-.173l-2.354-6.691q-.186-.558-.372,0l-2.181,6.691C773.177,247.984,773.226,248.034,773.3,248.034Z" transform="translate(-717.218 -237.154)" fill="#066069" fill-rule="evenodd"/>
      <path id="Path_45" data-name="Path 45" d="M858.81,237.823c-.05-.471-.124-.669-.3-.669s-.273.174-.372.4l-7.286,15.563-7.583-15.588c-.124-.273-.223-.372-.372-.372s-.248.174-.273.446l-1.784,16.158c-.1.942-.173,1.908-.991,2.057a3.186,3.186,0,0,1-.744.074c-.124,0-.248.05-.248.124,0,.173.173.223.421.223.669,0,1.859-.074,2.082-.074.2,0,1.388.074,2.3.074.3,0,.446-.05.446-.223,0-.074-.1-.124-.2-.124a4.561,4.561,0,0,1-.942-.124.794.794,0,0,1-.644-.768c0-.421,0-.867.025-1.264l.991-11.5h.1c.273.669,3.049,6.617,3.272,7.063.124.248,2.255,4.535,2.9,5.75.471.892.595,1.14.768,1.14.223,0,.3-.223.818-1.313l6.072-12.887h.074l1.19,12.788c.05.446.025.867-.1.892s-.174.074-.174.174c0,.124.124.2.694.248.917.074,3.594.149,4.139.149.3,0,.52-.074.52-.223,0-.1-.074-.124-.2-.124a5.373,5.373,0,0,1-1.611-.223c-1.066-.347-1.239-1.735-1.338-2.627Z" transform="translate(-772.466 -237.154)" fill="#066069" fill-rule="evenodd"/>
      <g id="Group_2" data-name="Group 2" transform="translate(0.079 21.129)">
        <path id="Path_46" data-name="Path 46" d="M506.606,362.711c0,1.479,0,2.7-.077,3.344-.062.447-.139.786-.447.848a2.375,2.375,0,0,1-.462.062c-.092,0-.123.046-.123.093,0,.092.077.123.247.123.462,0,1.433-.046,1.51-.046.123,0,1.695.092,2.049.092,2.635,0,3.929-1.71,3.929-3.359a3.6,3.6,0,0,0-2.666-3.251,3.882,3.882,0,0,0,1.448-2.773c0-.77-.555-2.311-3.082-2.311-.709,0-1.31.046-1.68.046-.077,0-1.048-.046-1.741-.046-.169,0-.247.031-.247.123,0,.062.062.092.123.092a2.887,2.887,0,0,1,.524.046c.509.108.632.354.663.878.031.493.031.925.031,3.328Zm1.233-6.5c0-.092.046-.139.185-.17a3.444,3.444,0,0,1,.74-.077c1.51,0,2.08,1.371,2.08,2.65a2.381,2.381,0,0,1-.555,1.556c-.324.37-.539.4-1.4.4a5.463,5.463,0,0,1-.94-.061c-.077-.031-.108-.062-.108-.17Zm0,4.884c0-.077.031-.108.093-.108.231,0,1,0,1.2.031a2.548,2.548,0,0,1,1.279.447,3.691,3.691,0,0,1,1.495,3.082,2.056,2.056,0,0,1-2.172,2.188,3.622,3.622,0,0,1-1.356-.231c-.478-.231-.478-.447-.524-1.2-.015-.231-.015-2.142-.015-3.328Z" transform="translate(-505.265 -353.127)" fill="#066069" fill-rule="evenodd"/>
        <path id="Path_47" data-name="Path 47" d="M559.854,362.215c0,1.479,0,2.7-.077,3.344-.061.447-.139.786-.447.847a2.385,2.385,0,0,1-.462.062c-.093,0-.123.046-.123.093,0,.092.077.123.247.123.462,0,1.433-.046,1.51-.046.447,0,1.479.092,3.806.092.6,0,.724,0,.832-.4a15.071,15.071,0,0,0,.2-1.495c0-.108,0-.231-.092-.231-.077,0-.108.062-.139.231-.108.632-.293.94-.693,1.109a4.417,4.417,0,0,1-1.479.17c-1.51,0-1.741-.2-1.787-1.263-.015-.324,0-2.111,0-2.635v-1.356a.1.1,0,0,1,.108-.108c.262,0,1.787.031,2.2.077.6.062.739.324.8.539a1.572,1.572,0,0,1,.062.508c0,.077.031.139.108.139.108,0,.108-.17.108-.293,0-.108.031-.678.062-.986.046-.508.123-.77.123-.863s-.031-.123-.077-.123c-.062,0-.123.077-.231.2-.139.154-.354.185-.724.216-.354.031-2.25.031-2.45.031-.077,0-.092-.046-.092-.154v-4.252c0-.108.031-.154.092-.154.17,0,1.849.015,2.111.046.832.092.986.277,1.094.524a1.654,1.654,0,0,1,.092.555c0,.123.031.2.123.2.062,0,.092-.092.108-.169.031-.185.062-.863.077-1.017.046-.431.123-.616.123-.724,0-.077-.016-.139-.062-.139-.077,0-.139.062-.216.077a4.116,4.116,0,0,1-.663.077c-.354.015-3.421.015-3.528.015-.077,0-1.048-.046-1.741-.046-.17,0-.246.031-.246.123,0,.062.062.092.123.092a2.878,2.878,0,0,1,.524.046c.508.108.632.354.663.878.031.493.031.925.031,3.328Z" transform="translate(-547.928 -352.631)" fill="#066069" fill-rule="evenodd"/>
        <path id="Path_48" data-name="Path 48" d="M608.428,360c0-2.4,0-2.835.031-3.328.031-.539.154-.8.6-.878a3.625,3.625,0,0,1,.509-.046c.062,0,.123-.031.123-.092,0-.092-.077-.123-.247-.123-.462,0-1.587.046-1.664.046s-1.048-.046-1.741-.046c-.17,0-.247.031-.247.123,0,.062.062.092.123.092a2.89,2.89,0,0,1,.524.046c.508.108.632.354.662.878.031.493.031.925.031,3.328v2.712c0,1.479,0,2.7-.077,3.344-.062.447-.139.786-.447.848a2.376,2.376,0,0,1-.462.062c-.092,0-.123.046-.123.093,0,.092.077.123.247.123.462,0,1.371-.046,1.51-.046.894,0,1.911.092,4.13.092.817,0,.863-.062.971-.416a9.819,9.819,0,0,0,.231-1.541c0-.169-.015-.231-.092-.231-.092,0-.123.077-.139.2a2.144,2.144,0,0,1-.4.925c-.37.447-1.048.462-1.864.462-1.2,0-1.6-.108-1.849-.354-.277-.277-.339-1.263-.339-3.528Z" transform="translate(-585.809 -353.127)" fill="#066069" fill-rule="evenodd"/>
        <path id="Path_49" data-name="Path 49" d="M653.021,362.215c0,1.479,0,2.7-.077,3.344-.062.447-.139.786-.447.847a2.385,2.385,0,0,1-.462.062c-.093,0-.123.046-.123.093,0,.092.077.123.247.123.462,0,1.433-.046,1.51-.046.447,0,1.479.092,3.806.092.6,0,.724,0,.832-.4a15.071,15.071,0,0,0,.2-1.495c0-.108,0-.231-.092-.231-.077,0-.108.062-.139.231-.108.632-.293.94-.693,1.109a4.418,4.418,0,0,1-1.479.17c-1.51,0-1.741-.2-1.787-1.263-.015-.324,0-2.111,0-2.635v-1.356a.1.1,0,0,1,.108-.108c.262,0,1.787.031,2.2.077.6.062.739.324.8.539a1.576,1.576,0,0,1,.062.508c0,.077.031.139.108.139.108,0,.108-.17.108-.293,0-.108.031-.678.062-.986.046-.508.123-.77.123-.863s-.031-.123-.077-.123c-.062,0-.123.077-.231.2-.139.154-.354.185-.724.216-.354.031-2.249.031-2.45.031-.077,0-.092-.046-.092-.154v-4.252c0-.108.031-.154.092-.154.17,0,1.849.015,2.111.046.832.092.986.277,1.094.524a1.652,1.652,0,0,1,.092.555c0,.123.031.2.123.2.062,0,.092-.092.108-.169.031-.185.062-.863.077-1.017.046-.431.123-.616.123-.724,0-.077-.016-.139-.062-.139-.077,0-.139.062-.216.077a4.12,4.12,0,0,1-.663.077c-.355.015-3.421.015-3.529.015-.077,0-1.048-.046-1.741-.046-.17,0-.247.031-.247.123,0,.062.062.092.123.092a2.873,2.873,0,0,1,.524.046c.509.108.632.354.663.878.031.493.031.925.031,3.328Z" transform="translate(-622.575 -352.631)" fill="#066069" fill-rule="evenodd"/>
        <path id="Path_50" data-name="Path 50" d="M700.3,362.7c0,1.479,0,2.7-.077,3.344-.062.447-.139.786-.447.847a2.378,2.378,0,0,1-.462.062c-.093,0-.123.046-.123.093,0,.092.077.123.247.123.462,0,1.433-.046,1.51-.046.154,0,2.1.185,3.421.185a6.121,6.121,0,0,0,4.669-1.772,6.3,6.3,0,0,0,1.664-4.345,5.5,5.5,0,0,0-1.495-3.914c-1.834-1.9-4.653-1.757-6.179-1.757-.924,0-1.9.046-2.08.046-.077,0-1.048-.046-1.741-.046-.169,0-.246.031-.246.123,0,.062.062.092.123.092a2.892,2.892,0,0,1,.524.046c.509.108.632.354.663.878.031.493.031.925.031,3.328Zm1.294-2.958c0-1.186,0-2.758.015-3.282a.28.28,0,0,1,.185-.308,4.114,4.114,0,0,1,1-.108c1.834,0,3.59.216,5.039,1.741a5.511,5.511,0,0,1,1.479,3.883,5.393,5.393,0,0,1-1.233,3.683,5.172,5.172,0,0,1-3.667,1.433c-1.818,0-2.419-.324-2.62-.616a3.36,3.36,0,0,1-.169-1.171c-.016-.293-.031-1.71-.031-3.344Z" transform="translate(-660.457 -353.118)" fill="#066069" fill-rule="evenodd"/>
        <path id="Path_51" data-name="Path 51" d="M773.439,350.312c0-2.4,0-2.835.031-3.328.031-.539.154-.8.57-.878a2.288,2.288,0,0,1,.385-.046c.062,0,.123-.031.123-.092,0-.092-.077-.123-.246-.123-.462,0-1.433.046-1.51.046s-1.048-.046-1.556-.046c-.169,0-.247.031-.247.123,0,.062.062.092.123.092a2.018,2.018,0,0,1,.478.062c.339.077.493.339.524.863.031.493.031.925.031,3.328v2.712c0,1.479,0,2.7-.077,3.344-.062.447-.139.786-.447.847a2.378,2.378,0,0,1-.462.062c-.092,0-.123.046-.123.093,0,.092.077.123.246.123.462,0,1.433-.046,1.51-.046s1.048.046,1.9.046c.169,0,.247-.046.247-.123,0-.046-.031-.093-.123-.093a6.7,6.7,0,0,1-.693-.062c-.462-.062-.555-.4-.6-.847-.077-.647-.077-1.864-.077-3.344Zm-.724-5.285a.794.794,0,0,0,.8-.832.749.749,0,0,0-.8-.755.777.777,0,0,0-.786.8A.757.757,0,0,0,772.715,345.027Z" transform="translate(-718.166 -343.44)" fill="#066069" fill-rule="evenodd"/>
        <path id="Path_52" data-name="Path 52" d="M799.638,364.514c0,.246,0,.894-.046,1.541-.031.447-.169.786-.478.848a2.38,2.38,0,0,1-.462.062c-.092,0-.123.046-.123.093,0,.092.077.123.246.123.462,0,1.433-.046,1.51-.046s1.048.046,1.9.046c.169,0,.247-.046.247-.123,0-.046-.031-.093-.123-.093a6.709,6.709,0,0,1-.693-.062c-.462-.062-.6-.4-.632-.848-.046-.647-.046-1.294-.046-1.541v-1.325a3.685,3.685,0,0,1,.231-1.541,49.075,49.075,0,0,1,2.943-4.9,2.934,2.934,0,0,1,.817-.786,1.467,1.467,0,0,1,.709-.216c.123,0,.2-.046.2-.124,0-.061-.092-.092-.2-.092-.293,0-1.4.046-1.494.046-.123,0-.617-.046-1.017-.046-.154,0-.247.031-.247.092,0,.077.092.108.231.154.185.046.247.216.247.431a1.5,1.5,0,0,1-.262.786c-.308.508-2.265,3.883-2.558,4.53-.277-.447-2.589-4.422-2.835-4.869a1.316,1.316,0,0,1-.2-.6.312.312,0,0,1,.2-.277c.139-.062.231-.077.231-.139s-.031-.108-.2-.108c-.6,0-1.186.046-1.294.046-.077,0-1.233-.046-1.525-.046-.139,0-.2.046-.2.108,0,.077.077.108.154.108a1.473,1.473,0,0,1,.662.246,4.316,4.316,0,0,1,1.048,1.14c.539.8,2.6,4.191,2.712,4.438a3.268,3.268,0,0,1,.354,1.618Z" transform="translate(-737.169 -353.127)" fill="#066069" fill-rule="evenodd"/>
        <path id="Path_53" data-name="Path 53" d="M856.2,362.215c0,1.479,0,2.7-.077,3.344-.062.447-.139.786-.447.847a2.383,2.383,0,0,1-.462.062c-.092,0-.123.046-.123.093,0,.092.077.123.247.123.462,0,1.433-.046,1.51-.046.447,0,1.479.092,3.806.092.6,0,.724,0,.832-.4.077-.324.2-1.371.2-1.495,0-.108,0-.231-.093-.231-.077,0-.108.062-.139.231-.108.632-.293.94-.693,1.109a4.418,4.418,0,0,1-1.479.17c-1.51,0-1.741-.2-1.787-1.263-.015-.324,0-2.111,0-2.635v-1.356a.1.1,0,0,1,.108-.108c.262,0,1.787.031,2.2.077.6.062.739.324.8.539a1.575,1.575,0,0,1,.062.508c0,.077.031.139.108.139.108,0,.108-.17.108-.293,0-.108.031-.678.062-.986.046-.508.123-.77.123-.863s-.031-.123-.077-.123c-.062,0-.123.077-.231.2-.139.154-.354.185-.724.216-.354.031-2.249.031-2.45.031-.077,0-.093-.046-.093-.154v-4.252c0-.108.031-.154.093-.154.169,0,1.849.015,2.111.046.832.092.986.277,1.094.524a1.655,1.655,0,0,1,.092.555c0,.123.031.2.123.2.062,0,.092-.092.108-.169.031-.185.062-.863.077-1.017.046-.431.123-.616.123-.724,0-.077-.015-.139-.062-.139-.077,0-.139.062-.216.077a4.122,4.122,0,0,1-.663.077c-.354.015-3.421.015-3.529.015-.077,0-1.048-.046-1.741-.046-.17,0-.246.031-.246.123,0,.062.061.092.123.092a2.872,2.872,0,0,1,.524.046c.509.108.632.354.663.878.031.493.031.925.031,3.328Z" transform="translate(-785.362 -352.631)" fill="#066069" fill-rule="evenodd"/>
        <path id="Path_54" data-name="Path 54" d="M905.054,366.526a4.052,4.052,0,0,0,2.327-.647,3.193,3.193,0,0,0,1.31-2.558c0-1.233-.431-2.188-2.25-3.621l-.432-.339c-1.479-1.156-1.88-1.71-1.88-2.589a1.752,1.752,0,0,1,1.9-1.787c1.418,0,1.834.647,1.926.817a2.7,2.7,0,0,1,.2.77c.016.123.031.2.123.2.077,0,.108-.108.108-.354,0-1.048.062-1.556.062-1.633s-.031-.108-.154-.108a2.523,2.523,0,0,1-.539-.077,5.976,5.976,0,0,0-1.433-.154c-1.957,0-3.19,1.125-3.19,2.773,0,1.048.37,2,2,3.344l.693.57c1.325,1.094,1.772,1.71,1.772,2.774a2.057,2.057,0,0,1-2.2,2.049,2.1,2.1,0,0,1-2.28-1.572,2.7,2.7,0,0,1-.046-.57c0-.123-.015-.17-.108-.17-.077,0-.108.077-.123.247-.015.247-.077.863-.077,1.633,0,.416.015.478.231.586A4.677,4.677,0,0,0,905.054,366.526Z" transform="translate(-823.741 -352.258)" fill="#066069" fill-rule="evenodd"/>
        <path id="Path_55" data-name="Path 55" d="M949.7,350.312c0-2.4,0-2.835.031-3.328.031-.539.154-.8.57-.878a2.29,2.29,0,0,1,.385-.046c.062,0,.123-.031.123-.092,0-.092-.077-.123-.246-.123-.462,0-1.433.046-1.51.046s-1.048-.046-1.556-.046c-.169,0-.246.031-.246.123,0,.062.062.092.123.092a2.017,2.017,0,0,1,.478.062c.339.077.493.339.524.863.031.493.031.925.031,3.328v2.712c0,1.479,0,2.7-.077,3.344-.062.447-.139.786-.447.847a2.372,2.372,0,0,1-.462.062c-.092,0-.123.046-.123.093,0,.092.077.123.247.123.462,0,1.433-.046,1.51-.046s1.048.046,1.9.046c.169,0,.247-.046.247-.123,0-.046-.031-.093-.123-.093a6.7,6.7,0,0,1-.693-.062c-.462-.062-.555-.4-.6-.847-.077-.647-.077-1.864-.077-3.344Zm-.724-5.285a.794.794,0,0,0,.8-.832.749.749,0,0,0-.8-.755.777.777,0,0,0-.786.8A.757.757,0,0,0,948.974,345.027Z" transform="translate(-859.386 -343.44)" fill="#066069" fill-rule="evenodd"/>
      </g>
    </g>
  </g>
</svg>
